<svg t="1745907049080" class="icon" viewBox="0 0 1024 1024" version="1.1" xmlns="http://www.w3.org/2000/svg" p-id="1489" width="200" height="200"><path d="M386.7 599.7c2.2-153.5 125.9-192.9 125.9-192.9s102 43.5 120.1 141.3c0.7 5.4 9.4 83.5-60.8 130.4-68.7-40.8-60.8-182-60.8-182s-24.6 50.3-23.1 103.2c4.3 42.1 1.4 91.7 94.1 144 5.1-0.7 123.7-63.8 112.9-191.5-28.2-132.4-137.5-173.9-137.5-173.9s65.4-55.5 61.4-127.9c-5.8-103.6-101.9-137-101.9-137s70.9 55 68 137.2c-2.9 82.2-73.8 106-73.8 106s-70.9-23.8-76.7-107.3c-0.7-96.4 75.2-141.3 75.2-141.3S407 151.4 400.5 252.6c-1.5 73.4 64.4 124.3 64.4 124.3s-138.2 69.3-128.8 214.6C331 751.8 509.7 838.8 509.7 838.8s-104.9-95.1-123-239.1z" fill="#0e932e" p-id="1490"></path><path d="M697.9 727.4c-131 25.8-183.1 101.2-183.1 101.2s85.4-78.1 191.8-74.7c118 4.8 156.3 66.6 156.3 66.6s-37.6 52.3-131.7 62.5c-139.4 2.8-193-27-208.4-38.4 18.7 15.1 89.1 64.7 209.8 67C886 902.6 928 817 928 817s-73.1-105.2-230.1-89.6zM282.5 882.2c-94.8-14.3-127.4-61.8-125.9-68.6 21-55 110.7-72.7 110.7-72.7S150.1 724.7 98 819.1c8.7 14.9 46.3 78.8 183.1 93 141.8 3.4 222.2-68.6 222.2-68.6s-65.9 53.7-220.8 38.7z" fill="#0e932e" p-id="1491"></path></svg>
